<?xml version="1.0" encoding="iso-8859-1"?>
<!-- Generator: Adobe Illustrator 16.0.0, SVG Export Plug-In . SVG Version: 6.00 Build 0)  -->
<!DOCTYPE svg PUBLIC "-//W3C//DTD SVG 1.1//EN" "http://www.w3.org/Graphics/SVG/1.1/DTD/svg11.dtd">
<svg version="1.1" id="Capa_1" xmlns="http://www.w3.org/2000/svg" xmlns:xlink="http://www.w3.org/1999/xlink" x="0px" y="0px"
	 width="792px" height="792px" viewBox="0 0 792 792" style="enable-background:new 0 0 792 792;" xml:space="preserve">
<g>
	<g id="Pin">
		<g>
			<path d="M394.317,0c0,0-270.567,3.069-270.567,295.465C123.75,443.966,394.317,792,394.317,792S668.25,447.034,668.25,293.881
				C668.25,3.069,394.317,0,394.317,0z M394.96,643.5c0,0-171.963-239.135-172.26-341.204C222.057,101.277,394.861,99,394.96,99
				c0.297,0,175.329,2.228,173.696,202.158C567.864,406.444,394.96,643.5,394.96,643.5z M396,198
				c-40.986,0-74.25,33.264-74.25,74.25S355.014,346.5,396,346.5c40.986,0,74.25-33.264,74.25-74.25S436.986,198,396,198z"/>
		</g>
	</g>
</g>
<g>
</g>
<g>
</g>
<g>
</g>
<g>
</g>
<g>
</g>
<g>
</g>
<g>
</g>
<g>
</g>
<g>
</g>
<g>
</g>
<g>
</g>
<g>
</g>
<g>
</g>
<g>
</g>
<g>
</g>
</svg>
