<?xml version="1.0" encoding="iso-8859-1"?>
<!-- Generator: Adobe Illustrator 19.0.0, SVG Export Plug-In . SVG Version: 6.00 Build 0)  -->
<svg version="1.1" id="Capa_1" xmlns="http://www.w3.org/2000/svg" xmlns:xlink="http://www.w3.org/1999/xlink" x="0px" y="0px"
	 viewBox="0 0 530.326 530.326" style="enable-background:new 0 0 530.326 530.326;" xml:space="preserve">
<g>
	<path d="M162.303,244.766H104.9V69.933c0-9.616-7.867-17.483-17.483-17.483s-17.483,7.867-17.483,17.483v174.833H17.775
		C8.159,244.766,0,251.759,0,261.375v79.257c0,9.616,8.159,17.483,17.775,17.483h52.158v101.986c0,9.616,7.867,17.483,17.483,17.483
		s17.483-7.867,17.483-17.483V358.116h57.403c9.616,0,18.357-7.867,18.357-17.483v-79.257
		C180.66,251.759,171.919,244.766,162.303,244.766z M142.78,323.441H34.967v-46.622H142.78V323.441z M355.493,122.674
		c0-9.616-7.285-18.066-16.901-18.066h-58.86V69.933c0-9.616-7.867-17.483-17.483-17.483c-9.616,0-17.483,7.867-17.483,17.483V104.9
		h-50.701c-9.616,0-16.318,8.159-16.318,18.066v79.258c0,9.616,6.702,16.318,16.318,16.318h50.701v241.852
		c0,9.616,7.867,17.483,17.483,17.483c9.616,0,17.483-7.867,17.483-17.483V218.541h58.86c9.616,0,16.901-6.702,16.901-16.318
		V122.674z M317.613,186.488H209.799v-46.622h107.814V186.488z M514.3,314.699h-59.734V69.933c0-9.616-7.867-17.483-17.483-17.483
		s-17.483,7.867-17.483,17.483v244.766h-49.827c-9.616,0-17.192,8.742-17.192,18.357v79.258c0,9.616,7.576,18.649,17.192,18.649
		h49.827v29.139c0,9.616,7.867,17.483,17.483,17.483s17.483-7.867,17.483-17.483v-29.139H514.3c9.616,0,16.026-9.033,16.026-18.649
		v-79.258C530.326,323.441,523.915,314.699,514.3,314.699z M495.359,393.374H387.546v-46.622h107.814V393.374z"/>
</g>
<g>
</g>
<g>
</g>
<g>
</g>
<g>
</g>
<g>
</g>
<g>
</g>
<g>
</g>
<g>
</g>
<g>
</g>
<g>
</g>
<g>
</g>
<g>
</g>
<g>
</g>
<g>
</g>
<g>
</g>
</svg>
